<?xml version="1.0" standalone="no"?><!DOCTYPE svg PUBLIC "-//W3C//DTD SVG 1.1//EN" "http://www.w3.org/Graphics/SVG/1.1/DTD/svg11.dtd"><svg t="1685965445141" class="icon" viewBox="0 0 1024 1024" version="1.1" xmlns="http://www.w3.org/2000/svg" p-id="3461" xmlns:xlink="http://www.w3.org/1999/xlink" width="200" height="200"><path d="M945.230769 787.692308h78.769231v78.76923h-78.769231zM945.230769 708.923077h78.769231v78.769231h-78.769231zM945.230769 630.153846h78.769231v78.769231h-78.769231zM866.461538 866.461538h78.769231v78.769231h-78.769231z" fill="#1E2028" p-id="3462"></path><path d="M866.461538 787.692308h78.769231v78.76923h-78.769231zM866.461538 708.923077h78.769231v78.769231h-78.769231zM866.461538 630.153846h78.769231v78.769231h-78.769231z" fill="#FF9343" p-id="3463"></path><path d="M866.461538 551.384615h78.769231v78.769231h-78.769231zM787.692308 945.230769h78.76923v78.769231h-78.76923z" fill="#1E2028" p-id="3464"></path><path d="M787.692308 866.461538h78.76923v78.769231h-78.76923z" fill="#FF9343" p-id="3465"></path><path d="M787.692308 787.692308h78.76923v78.76923h-78.76923zM787.692308 708.923077h78.76923v78.769231h-78.76923zM787.692308 630.153846h78.76923v78.769231h-78.76923z" fill="#FFDD4D" p-id="3466"></path><path d="M787.692308 551.384615h78.76923v78.769231h-78.76923z" fill="#FF9343" p-id="3467"></path><path d="M787.692308 472.615385h78.76923v78.76923h-78.76923zM787.692308 393.846154h78.76923v78.769231h-78.76923zM787.692308 315.076923h78.76923v78.769231h-78.76923zM787.692308 236.307692h78.76923v78.769231h-78.76923zM787.692308 157.538462h78.76923v78.76923h-78.76923zM787.692308 78.769231h78.76923v78.769231h-78.76923zM708.923077 945.230769h78.769231v78.769231h-78.769231z" fill="#1E2028" p-id="3468"></path><path d="M708.923077 866.461538h78.769231v78.769231h-78.769231z" fill="#FF9343" p-id="3469"></path><path d="M708.923077 787.692308h78.769231v78.76923h-78.769231zM708.923077 708.923077h78.769231v78.769231h-78.769231zM708.923077 630.153846h78.769231v78.769231h-78.769231zM708.923077 551.384615h78.769231v78.769231h-78.769231z" fill="#FFDD4D" p-id="3470"></path><path d="M708.923077 472.615385h78.769231v78.76923h-78.769231zM708.923077 393.846154h78.769231v78.769231h-78.769231zM708.923077 315.076923h78.769231v78.769231h-78.769231zM708.923077 236.307692h78.769231v78.769231h-78.769231zM708.923077 157.538462h78.769231v78.76923h-78.769231zM708.923077 78.769231h78.769231v78.769231h-78.769231z" fill="#FF9343" p-id="3471"></path><path d="M708.923077 0h78.769231v78.769231h-78.769231zM630.153846 945.230769h78.769231v78.769231h-78.769231z" fill="#1E2028" p-id="3472"></path><path d="M630.153846 866.461538h78.769231v78.769231h-78.769231z" fill="#FF9343" p-id="3473"></path><path d="M630.153846 787.692308h78.769231v78.76923h-78.769231z" fill="#FFDD4D" p-id="3474"></path><path d="M630.153846 708.923077h78.769231v78.769231h-78.769231zM630.153846 630.153846h78.769231v78.769231h-78.769231z" fill="#1E2028" p-id="3475"></path><path d="M630.153846 551.384615h78.769231v78.769231h-78.769231z" fill="#FFDD4D" p-id="3476"></path><path d="M630.153846 472.615385h78.769231v78.76923h-78.769231zM630.153846 393.846154h78.769231v78.769231h-78.769231zM630.153846 315.076923h78.769231v78.769231h-78.769231zM630.153846 236.307692h78.769231v78.769231h-78.769231zM630.153846 157.538462h78.769231v78.76923h-78.769231zM630.153846 78.769231h78.769231v78.769231h-78.769231z" fill="#FFF1B6" p-id="3477"></path><path d="M630.153846 0h78.769231v78.769231h-78.769231zM551.384615 945.230769h78.769231v78.769231h-78.769231z" fill="#1E2028" p-id="3478"></path><path d="M551.384615 866.461538h78.769231v78.769231h-78.769231z" fill="#FF9343" p-id="3479"></path><path d="M551.384615 787.692308h78.769231v78.76923h-78.769231zM551.384615 708.923077h78.769231v78.769231h-78.769231zM551.384615 630.153846h78.769231v78.769231h-78.769231zM551.384615 551.384615h78.769231v78.769231h-78.769231z" fill="#FFDD4D" p-id="3480"></path><path d="M551.384615 472.615385h78.769231v78.76923h-78.769231zM551.384615 393.846154h78.769231v78.769231h-78.769231zM551.384615 315.076923h78.769231v78.769231h-78.769231zM551.384615 236.307692h78.769231v78.769231h-78.769231zM551.384615 157.538462h78.769231v78.76923h-78.769231zM551.384615 78.769231h78.769231v78.769231h-78.769231zM472.615385 945.230769h78.76923v78.769231h-78.76923z" fill="#1E2028" p-id="3481"></path><path d="M472.615385 866.461538h78.76923v78.769231h-78.76923z" fill="#FF9343" p-id="3482"></path><path d="M472.615385 787.692308h78.76923v78.76923h-78.76923z" fill="#1E2028" p-id="3483"></path><path d="M472.615385 708.923077h78.76923v78.769231h-78.76923zM472.615385 630.153846h78.76923v78.769231h-78.76923zM472.615385 551.384615h78.76923v78.769231h-78.76923z" fill="#FFDD4D" p-id="3484"></path><path d="M472.615385 472.615385h78.76923v78.76923h-78.76923zM393.846154 945.230769h78.769231v78.769231h-78.769231z" fill="#1E2028" p-id="3485"></path><path d="M393.846154 866.461538h78.769231v78.769231h-78.769231z" fill="#FF9343" p-id="3486"></path><path d="M393.846154 787.692308h78.769231v78.76923h-78.769231zM393.846154 708.923077h78.769231v78.769231h-78.769231zM393.846154 630.153846h78.769231v78.769231h-78.769231zM393.846154 551.384615h78.769231v78.769231h-78.769231z" fill="#FFDD4D" p-id="3487"></path><path d="M393.846154 472.615385h78.769231v78.76923h-78.769231zM393.846154 393.846154h78.769231v78.769231h-78.769231zM393.846154 315.076923h78.769231v78.769231h-78.769231zM393.846154 236.307692h78.769231v78.769231h-78.769231zM393.846154 157.538462h78.769231v78.76923h-78.769231zM393.846154 78.769231h78.769231v78.769231h-78.769231zM315.076923 945.230769h78.769231v78.769231h-78.769231z" fill="#1E2028" p-id="3488"></path><path d="M315.076923 866.461538h78.769231v78.769231h-78.769231z" fill="#FF9343" p-id="3489"></path><path d="M315.076923 787.692308h78.769231v78.76923h-78.769231z" fill="#FFDD4D" p-id="3490"></path><path d="M315.076923 708.923077h78.769231v78.769231h-78.769231zM315.076923 630.153846h78.769231v78.769231h-78.769231z" fill="#1E2028" p-id="3491"></path><path d="M315.076923 551.384615h78.769231v78.769231h-78.769231z" fill="#FFDD4D" p-id="3492"></path><path d="M315.076923 472.615385h78.769231v78.76923h-78.769231zM315.076923 393.846154h78.769231v78.769231h-78.769231zM315.076923 315.076923h78.769231v78.769231h-78.769231zM315.076923 236.307692h78.769231v78.769231h-78.769231zM315.076923 157.538462h78.769231v78.76923h-78.769231zM315.076923 78.769231h78.769231v78.769231h-78.769231z" fill="#FF9343" p-id="3493"></path><path d="M315.076923 0h78.769231v78.769231h-78.769231zM236.307692 945.230769h78.769231v78.769231h-78.769231z" fill="#1E2028" p-id="3494"></path><path d="M236.307692 866.461538h78.769231v78.769231h-78.769231z" fill="#FFF1B6" p-id="3495"></path><path d="M236.307692 787.692308h78.769231v78.76923h-78.769231zM236.307692 708.923077h78.769231v78.769231h-78.769231zM236.307692 630.153846h78.769231v78.769231h-78.769231zM236.307692 551.384615h78.769231v78.769231h-78.769231z" fill="#FFDD4D" p-id="3496"></path><path d="M236.307692 472.615385h78.769231v78.76923h-78.769231zM236.307692 393.846154h78.769231v78.769231h-78.769231zM236.307692 315.076923h78.769231v78.769231h-78.769231zM236.307692 236.307692h78.769231v78.769231h-78.769231zM236.307692 157.538462h78.769231v78.76923h-78.769231zM236.307692 78.769231h78.769231v78.769231h-78.769231z" fill="#FFF1B6" p-id="3497"></path><path d="M236.307692 0h78.769231v78.769231h-78.769231zM157.538462 945.230769h78.76923v78.769231H157.538462z" fill="#1E2028" p-id="3498"></path><path d="M157.538462 866.461538h78.76923v78.769231H157.538462z" fill="#FFF1B6" p-id="3499"></path><path d="M157.538462 787.692308h78.76923v78.76923H157.538462zM157.538462 708.923077h78.76923v78.769231H157.538462zM157.538462 630.153846h78.76923v78.769231H157.538462z" fill="#FFDD4D" p-id="3500"></path><path d="M157.538462 551.384615h78.76923v78.769231H157.538462z" fill="#FFF1B6" p-id="3501"></path><path d="M157.538462 472.615385h78.76923v78.76923H157.538462zM157.538462 393.846154h78.76923v78.769231H157.538462zM157.538462 315.076923h78.76923v78.769231H157.538462zM157.538462 236.307692h78.76923v78.769231H157.538462zM157.538462 157.538462h78.76923v78.76923H157.538462zM157.538462 78.769231h78.76923v78.769231H157.538462zM78.769231 866.461538h78.769231v78.769231H78.769231z" fill="#1E2028" p-id="3502"></path><path d="M78.769231 787.692308h78.769231v78.76923H78.769231zM78.769231 708.923077h78.769231v78.769231H78.769231zM78.769231 630.153846h78.769231v78.769231H78.769231z" fill="#FFF1B6" p-id="3503"></path><path d="M78.769231 551.384615h78.769231v78.769231H78.769231zM0 787.692308h78.769231v78.76923H0zM0 708.923077h78.769231v78.769231H0zM0 630.153846h78.769231v78.769231H0z" fill="#1E2028" p-id="3504"></path></svg>